<mxfile host="app.diagrams.net" agent="Mozilla/5.0 (Windows NT 10.0; Win64; x64) AppleWebKit/537.36 (KHTML, like Gecko) Chrome/137.0.0.0 Safari/537.36 Edg/137.0.0.0" version="27.1.4">
  <diagram name="第 1 页" id="DpyVP237-prWhmccieEh">
    <mxGraphModel dx="1034" dy="570" grid="1" gridSize="10" guides="1" tooltips="1" connect="1" arrows="1" fold="1" page="1" pageScale="1" pageWidth="1169" pageHeight="827" math="0" shadow="0">
      <root>
        <mxCell id="0" />
        <mxCell id="1" parent="0" />
        <mxCell id="Tnk6UtJkE0CCUPSip0-P-78" style="edgeStyle=orthogonalEdgeStyle;rounded=0;orthogonalLoop=1;jettySize=auto;html=1;entryX=0;entryY=0.5;entryDx=0;entryDy=0;" parent="1" source="Tnk6UtJkE0CCUPSip0-P-75" target="Tnk6UtJkE0CCUPSip0-P-32" edge="1">
          <mxGeometry relative="1" as="geometry" />
        </mxCell>
        <mxCell id="Tnk6UtJkE0CCUPSip0-P-75" value="" style="shape=trapezoid;perimeter=trapezoidPerimeter;whiteSpace=wrap;html=1;fixedSize=1;rotation=90;" parent="1" vertex="1">
          <mxGeometry x="421.43" y="1326.49" width="233.68" height="147.07" as="geometry" />
        </mxCell>
        <mxCell id="wR1qudTtFKgaIiXU7urF-36" value="" style="rounded=1;whiteSpace=wrap;html=1;" parent="1" vertex="1">
          <mxGeometry x="120" y="565" width="600" height="120" as="geometry" />
        </mxCell>
        <mxCell id="wR1qudTtFKgaIiXU7urF-27" value="" style="rounded=0;whiteSpace=wrap;html=1;" parent="1" vertex="1">
          <mxGeometry x="170" y="175" width="790" height="175" as="geometry" />
        </mxCell>
        <mxCell id="wR1qudTtFKgaIiXU7urF-2" style="edgeStyle=orthogonalEdgeStyle;rounded=0;orthogonalLoop=1;jettySize=auto;html=1;entryX=0;entryY=0.5;entryDx=0;entryDy=0;" parent="1" source="6OF3JbXOs-h79z-HZUOT-1" target="wR1qudTtFKgaIiXU7urF-1" edge="1">
          <mxGeometry relative="1" as="geometry" />
        </mxCell>
        <mxCell id="6OF3JbXOs-h79z-HZUOT-1" value="12 bit adc input&lt;div&gt;(0-4095)&lt;/div&gt;&lt;div&gt;(0-4.095v)&lt;/div&gt;" style="rounded=0;whiteSpace=wrap;html=1;" parent="1" vertex="1">
          <mxGeometry x="60" y="230" width="100" height="60" as="geometry" />
        </mxCell>
        <mxCell id="6OF3JbXOs-h79z-HZUOT-2" value="8 bit dac output&lt;div&gt;(0-255)&lt;br&gt;&lt;div&gt;(0-5v)&lt;/div&gt;&lt;/div&gt;" style="rounded=0;whiteSpace=wrap;html=1;" parent="1" vertex="1">
          <mxGeometry x="980" y="230" width="120" height="60" as="geometry" />
        </mxCell>
        <mxCell id="wR1qudTtFKgaIiXU7urF-12" style="edgeStyle=orthogonalEdgeStyle;rounded=0;orthogonalLoop=1;jettySize=auto;html=1;entryX=0;entryY=0.5;entryDx=0;entryDy=0;" parent="1" source="6OF3JbXOs-h79z-HZUOT-3" target="wR1qudTtFKgaIiXU7urF-11" edge="1">
          <mxGeometry relative="1" as="geometry" />
        </mxCell>
        <mxCell id="6OF3JbXOs-h79z-HZUOT-3" value="" style="rounded=0;whiteSpace=wrap;html=1;" parent="1" vertex="1">
          <mxGeometry x="330" y="190" width="360" height="140" as="geometry" />
        </mxCell>
        <mxCell id="wR1qudTtFKgaIiXU7urF-6" style="edgeStyle=orthogonalEdgeStyle;rounded=0;orthogonalLoop=1;jettySize=auto;html=1;entryX=0;entryY=0.5;entryDx=0;entryDy=0;" parent="1" source="6OF3JbXOs-h79z-HZUOT-4" target="wR1qudTtFKgaIiXU7urF-4" edge="1">
          <mxGeometry relative="1" as="geometry" />
        </mxCell>
        <mxCell id="6OF3JbXOs-h79z-HZUOT-4" value="Higher Order Difference&lt;div&gt;(N=1)&lt;/div&gt;" style="rounded=0;whiteSpace=wrap;html=1;" parent="1" vertex="1">
          <mxGeometry x="350" y="230" width="80" height="60" as="geometry" />
        </mxCell>
        <mxCell id="6OF3JbXOs-h79z-HZUOT-8" value="reconstruction" style="text;html=1;align=center;verticalAlign=middle;whiteSpace=wrap;rounded=0;" parent="1" vertex="1">
          <mxGeometry x="480" y="190" width="60" height="30" as="geometry" />
        </mxCell>
        <mxCell id="wR1qudTtFKgaIiXU7urF-3" style="edgeStyle=orthogonalEdgeStyle;rounded=0;orthogonalLoop=1;jettySize=auto;html=1;entryX=0;entryY=0.5;entryDx=0;entryDy=0;" parent="1" source="wR1qudTtFKgaIiXU7urF-1" target="6OF3JbXOs-h79z-HZUOT-3" edge="1">
          <mxGeometry relative="1" as="geometry" />
        </mxCell>
        <mxCell id="wR1qudTtFKgaIiXU7urF-1" value="Convertion&lt;div&gt;(12 bit int to Q7,16 fixed point voltage representation)&lt;/div&gt;" style="rounded=0;whiteSpace=wrap;html=1;" parent="1" vertex="1">
          <mxGeometry x="186" y="230" width="120" height="60" as="geometry" />
        </mxCell>
        <mxCell id="wR1qudTtFKgaIiXU7urF-8" style="edgeStyle=orthogonalEdgeStyle;rounded=0;orthogonalLoop=1;jettySize=auto;html=1;entryX=0;entryY=0.5;entryDx=0;entryDy=0;" parent="1" source="wR1qudTtFKgaIiXU7urF-4" target="wR1qudTtFKgaIiXU7urF-5" edge="1">
          <mxGeometry relative="1" as="geometry" />
        </mxCell>
        <mxCell id="wR1qudTtFKgaIiXU7urF-4" value="Modulo Residual" style="rounded=0;whiteSpace=wrap;html=1;" parent="1" vertex="1">
          <mxGeometry x="465" y="230" width="90" height="60" as="geometry" />
        </mxCell>
        <mxCell id="wR1qudTtFKgaIiXU7urF-5" value="Anti-Difference Rounding" style="rounded=0;whiteSpace=wrap;html=1;" parent="1" vertex="1">
          <mxGeometry x="580" y="230" width="90" height="60" as="geometry" />
        </mxCell>
        <mxCell id="wR1qudTtFKgaIiXU7urF-10" style="edgeStyle=orthogonalEdgeStyle;rounded=0;orthogonalLoop=1;jettySize=auto;html=1;entryX=0;entryY=0.5;entryDx=0;entryDy=0;" parent="1" source="wR1qudTtFKgaIiXU7urF-9" target="6OF3JbXOs-h79z-HZUOT-2" edge="1">
          <mxGeometry relative="1" as="geometry" />
        </mxCell>
        <mxCell id="wR1qudTtFKgaIiXU7urF-9" value="Convertion&lt;div&gt;( Q7,16 fixed point voltage to 8 bit int)&lt;/div&gt;" style="rounded=0;whiteSpace=wrap;html=1;" parent="1" vertex="1">
          <mxGeometry x="840" y="230" width="120" height="60" as="geometry" />
        </mxCell>
        <mxCell id="wR1qudTtFKgaIiXU7urF-13" style="edgeStyle=orthogonalEdgeStyle;rounded=0;orthogonalLoop=1;jettySize=auto;html=1;entryX=0;entryY=0.5;entryDx=0;entryDy=0;" parent="1" source="wR1qudTtFKgaIiXU7urF-11" target="wR1qudTtFKgaIiXU7urF-9" edge="1">
          <mxGeometry relative="1" as="geometry" />
        </mxCell>
        <mxCell id="wR1qudTtFKgaIiXU7urF-11" value="Moving Average Filter&lt;div&gt;(Window Size=100)&lt;/div&gt;" style="rounded=0;whiteSpace=wrap;html=1;" parent="1" vertex="1">
          <mxGeometry x="710" y="230" width="110" height="60" as="geometry" />
        </mxCell>
        <mxCell id="wR1qudTtFKgaIiXU7urF-14" value="&lt;font style=&quot;font-size: 16px;&quot;&gt;Top Level hardware archetecture&lt;/font&gt;" style="text;html=1;align=center;verticalAlign=middle;whiteSpace=wrap;rounded=0;" parent="1" vertex="1">
          <mxGeometry x="50" y="140" width="270" height="30" as="geometry" />
        </mxCell>
        <mxCell id="wR1qudTtFKgaIiXU7urF-18" style="edgeStyle=orthogonalEdgeStyle;rounded=0;orthogonalLoop=1;jettySize=auto;html=1;entryX=0;entryY=0.5;entryDx=0;entryDy=0;" parent="1" source="wR1qudTtFKgaIiXU7urF-15" target="wR1qudTtFKgaIiXU7urF-16" edge="1">
          <mxGeometry relative="1" as="geometry" />
        </mxCell>
        <mxCell id="wR1qudTtFKgaIiXU7urF-15" value="Higher Order Difference" style="rounded=0;whiteSpace=wrap;html=1;" parent="1" vertex="1">
          <mxGeometry x="300" y="440" width="80" height="60" as="geometry" />
        </mxCell>
        <mxCell id="wR1qudTtFKgaIiXU7urF-19" style="edgeStyle=orthogonalEdgeStyle;rounded=0;orthogonalLoop=1;jettySize=auto;html=1;entryX=0;entryY=0.5;entryDx=0;entryDy=0;" parent="1" source="wR1qudTtFKgaIiXU7urF-16" target="wR1qudTtFKgaIiXU7urF-17" edge="1">
          <mxGeometry relative="1" as="geometry" />
        </mxCell>
        <mxCell id="wR1qudTtFKgaIiXU7urF-16" value="Modulo Residual" style="rounded=0;whiteSpace=wrap;html=1;" parent="1" vertex="1">
          <mxGeometry x="415" y="440" width="90" height="60" as="geometry" />
        </mxCell>
        <mxCell id="wR1qudTtFKgaIiXU7urF-21" style="edgeStyle=orthogonalEdgeStyle;rounded=0;orthogonalLoop=1;jettySize=auto;html=1;entryX=0;entryY=0.5;entryDx=0;entryDy=0;" parent="1" source="wR1qudTtFKgaIiXU7urF-17" target="wR1qudTtFKgaIiXU7urF-20" edge="1">
          <mxGeometry relative="1" as="geometry" />
        </mxCell>
        <mxCell id="wR1qudTtFKgaIiXU7urF-17" value="Anti-Difference Rounding" style="rounded=0;whiteSpace=wrap;html=1;" parent="1" vertex="1">
          <mxGeometry x="530" y="440" width="90" height="60" as="geometry" />
        </mxCell>
        <mxCell id="wR1qudTtFKgaIiXU7urF-25" style="edgeStyle=orthogonalEdgeStyle;rounded=0;orthogonalLoop=1;jettySize=auto;html=1;" parent="1" source="wR1qudTtFKgaIiXU7urF-20" target="wR1qudTtFKgaIiXU7urF-26" edge="1">
          <mxGeometry relative="1" as="geometry">
            <mxPoint x="710" y="470" as="targetPoint" />
          </mxGeometry>
        </mxCell>
        <mxCell id="wR1qudTtFKgaIiXU7urF-20" value="&lt;font style=&quot;font-size: 21px;&quot;&gt;+&lt;/font&gt;" style="rounded=0;whiteSpace=wrap;html=1;" parent="1" vertex="1">
          <mxGeometry x="650" y="455" width="30" height="30" as="geometry" />
        </mxCell>
        <mxCell id="wR1qudTtFKgaIiXU7urF-23" style="edgeStyle=orthogonalEdgeStyle;rounded=0;orthogonalLoop=1;jettySize=auto;html=1;entryX=0;entryY=0.5;entryDx=0;entryDy=0;" parent="1" source="wR1qudTtFKgaIiXU7urF-22" target="wR1qudTtFKgaIiXU7urF-15" edge="1">
          <mxGeometry relative="1" as="geometry" />
        </mxCell>
        <mxCell id="wR1qudTtFKgaIiXU7urF-24" style="edgeStyle=orthogonalEdgeStyle;rounded=0;orthogonalLoop=1;jettySize=auto;html=1;entryX=0.5;entryY=0;entryDx=0;entryDy=0;" parent="1" source="wR1qudTtFKgaIiXU7urF-22" target="wR1qudTtFKgaIiXU7urF-20" edge="1">
          <mxGeometry relative="1" as="geometry">
            <Array as="points">
              <mxPoint x="221" y="420" />
              <mxPoint x="665" y="420" />
            </Array>
          </mxGeometry>
        </mxCell>
        <mxCell id="wR1qudTtFKgaIiXU7urF-22" value="Modulo Folded Input" style="rounded=0;whiteSpace=wrap;html=1;" parent="1" vertex="1">
          <mxGeometry x="186" y="440" width="70" height="60" as="geometry" />
        </mxCell>
        <mxCell id="wR1qudTtFKgaIiXU7urF-26" value="Reconstructed Result" style="rounded=0;whiteSpace=wrap;html=1;" parent="1" vertex="1">
          <mxGeometry x="720" y="440" width="90" height="60" as="geometry" />
        </mxCell>
        <mxCell id="wR1qudTtFKgaIiXU7urF-28" value="FPGA Hardware" style="text;html=1;align=center;verticalAlign=middle;whiteSpace=wrap;rounded=0;" parent="1" vertex="1">
          <mxGeometry x="186" y="180" width="100" height="30" as="geometry" />
        </mxCell>
        <mxCell id="wR1qudTtFKgaIiXU7urF-32" style="edgeStyle=orthogonalEdgeStyle;rounded=0;orthogonalLoop=1;jettySize=auto;html=1;exitX=1;exitY=0.5;exitDx=0;exitDy=0;" parent="1" source="wR1qudTtFKgaIiXU7urF-29" target="wR1qudTtFKgaIiXU7urF-30" edge="1">
          <mxGeometry relative="1" as="geometry" />
        </mxCell>
        <mxCell id="wR1qudTtFKgaIiXU7urF-33" value="Max&amp;nbsp;&lt;div&gt;500khz&lt;/div&gt;" style="edgeLabel;html=1;align=center;verticalAlign=middle;resizable=0;points=[];" parent="wR1qudTtFKgaIiXU7urF-32" vertex="1" connectable="0">
          <mxGeometry x="0.049" relative="1" as="geometry">
            <mxPoint as="offset" />
          </mxGeometry>
        </mxCell>
        <mxCell id="wR1qudTtFKgaIiXU7urF-29" value="ADC Sample" style="rounded=0;whiteSpace=wrap;html=1;" parent="1" vertex="1">
          <mxGeometry x="180" y="600" width="120" height="50" as="geometry" />
        </mxCell>
        <mxCell id="wR1qudTtFKgaIiXU7urF-34" style="edgeStyle=orthogonalEdgeStyle;rounded=0;orthogonalLoop=1;jettySize=auto;html=1;" parent="1" source="wR1qudTtFKgaIiXU7urF-30" target="wR1qudTtFKgaIiXU7urF-31" edge="1">
          <mxGeometry relative="1" as="geometry" />
        </mxCell>
        <mxCell id="wR1qudTtFKgaIiXU7urF-35" value="I2C&lt;div&gt;Max 22khz&lt;/div&gt;" style="edgeLabel;html=1;align=center;verticalAlign=middle;resizable=0;points=[];" parent="wR1qudTtFKgaIiXU7urF-34" vertex="1" connectable="0">
          <mxGeometry x="-0.2118" y="1" relative="1" as="geometry">
            <mxPoint as="offset" />
          </mxGeometry>
        </mxCell>
        <mxCell id="wR1qudTtFKgaIiXU7urF-30" value="Reconstruct" style="rounded=0;whiteSpace=wrap;html=1;" parent="1" vertex="1">
          <mxGeometry x="360" y="600" width="120" height="50" as="geometry" />
        </mxCell>
        <mxCell id="wR1qudTtFKgaIiXU7urF-31" value="DAC Output" style="rounded=0;whiteSpace=wrap;html=1;" parent="1" vertex="1">
          <mxGeometry x="570" y="600" width="120" height="50" as="geometry" />
        </mxCell>
        <mxCell id="wR1qudTtFKgaIiXU7urF-37" value="1 action loop" style="text;html=1;align=center;verticalAlign=middle;whiteSpace=wrap;rounded=0;" parent="1" vertex="1">
          <mxGeometry x="375" y="565" width="90" height="30" as="geometry" />
        </mxCell>
        <mxCell id="Tnk6UtJkE0CCUPSip0-P-1" style="edgeStyle=orthogonalEdgeStyle;rounded=0;orthogonalLoop=1;jettySize=auto;html=1;entryX=0;entryY=0.5;entryDx=0;entryDy=0;" parent="1" source="Tnk6UtJkE0CCUPSip0-P-2" target="Tnk6UtJkE0CCUPSip0-P-4" edge="1">
          <mxGeometry relative="1" as="geometry" />
        </mxCell>
        <mxCell id="Tnk6UtJkE0CCUPSip0-P-2" value="High-level model&lt;div&gt;test data simulation&lt;/div&gt;&lt;div&gt;(Python)&lt;/div&gt;" style="rounded=0;whiteSpace=wrap;html=1;" parent="1" vertex="1">
          <mxGeometry x="210" y="950" width="120" height="60" as="geometry" />
        </mxCell>
        <mxCell id="Tnk6UtJkE0CCUPSip0-P-3" style="edgeStyle=orthogonalEdgeStyle;rounded=0;orthogonalLoop=1;jettySize=auto;html=1;entryX=0;entryY=0.5;entryDx=0;entryDy=0;" parent="1" source="Tnk6UtJkE0CCUPSip0-P-4" target="Tnk6UtJkE0CCUPSip0-P-6" edge="1">
          <mxGeometry relative="1" as="geometry" />
        </mxCell>
        <mxCell id="Tnk6UtJkE0CCUPSip0-P-13" value="reference" style="edgeLabel;html=1;align=center;verticalAlign=middle;resizable=0;points=[];" parent="Tnk6UtJkE0CCUPSip0-P-3" vertex="1" connectable="0">
          <mxGeometry x="0.0983" y="1" relative="1" as="geometry">
            <mxPoint x="-7" y="1" as="offset" />
          </mxGeometry>
        </mxCell>
        <mxCell id="Tnk6UtJkE0CCUPSip0-P-14" style="edgeStyle=orthogonalEdgeStyle;rounded=0;orthogonalLoop=1;jettySize=auto;html=1;exitX=1;exitY=0.5;exitDx=0;exitDy=0;" parent="1" source="Tnk6UtJkE0CCUPSip0-P-4" edge="1">
          <mxGeometry relative="1" as="geometry">
            <mxPoint x="210" y="980" as="targetPoint" />
            <Array as="points">
              <mxPoint x="520" y="980" />
              <mxPoint x="520" y="930" />
              <mxPoint x="190" y="930" />
              <mxPoint x="190" y="980" />
            </Array>
          </mxGeometry>
        </mxCell>
        <mxCell id="Tnk6UtJkE0CCUPSip0-P-15" value="Modification From Real Test Results" style="edgeLabel;html=1;align=center;verticalAlign=middle;resizable=0;points=[];" parent="Tnk6UtJkE0CCUPSip0-P-14" vertex="1" connectable="0">
          <mxGeometry x="-0.0109" y="-3" relative="1" as="geometry">
            <mxPoint x="-7" as="offset" />
          </mxGeometry>
        </mxCell>
        <mxCell id="Tnk6UtJkE0CCUPSip0-P-4" value="&lt;div&gt;Low-level model&lt;/div&gt;Real data experiment&lt;div&gt;(C)&lt;/div&gt;" style="rounded=0;whiteSpace=wrap;html=1;" parent="1" vertex="1">
          <mxGeometry x="375" y="950" width="125" height="60" as="geometry" />
        </mxCell>
        <mxCell id="Tnk6UtJkE0CCUPSip0-P-6" value="Hardware Implementation&lt;div&gt;(System Verilog)&lt;/div&gt;" style="rounded=0;whiteSpace=wrap;html=1;" parent="1" vertex="1">
          <mxGeometry x="570" y="950" width="146" height="60" as="geometry" />
        </mxCell>
        <mxCell id="Tnk6UtJkE0CCUPSip0-P-9" style="edgeStyle=orthogonalEdgeStyle;rounded=0;orthogonalLoop=1;jettySize=auto;html=1;entryX=0;entryY=0.5;entryDx=0;entryDy=0;" parent="1" source="Tnk6UtJkE0CCUPSip0-P-11" target="Tnk6UtJkE0CCUPSip0-P-2" edge="1">
          <mxGeometry relative="1" as="geometry" />
        </mxCell>
        <mxCell id="Tnk6UtJkE0CCUPSip0-P-11" value="Theory Breakdown" style="rounded=0;whiteSpace=wrap;html=1;" parent="1" vertex="1">
          <mxGeometry x="90" y="950" width="70" height="60" as="geometry" />
        </mxCell>
        <mxCell id="Tnk6UtJkE0CCUPSip0-P-19" style="edgeStyle=orthogonalEdgeStyle;rounded=0;orthogonalLoop=1;jettySize=auto;html=1;" parent="1" source="Tnk6UtJkE0CCUPSip0-P-17" target="Tnk6UtJkE0CCUPSip0-P-18" edge="1">
          <mxGeometry relative="1" as="geometry" />
        </mxCell>
        <mxCell id="Tnk6UtJkE0CCUPSip0-P-20" value="Modulo Folding" style="edgeLabel;html=1;align=center;verticalAlign=middle;resizable=0;points=[];" parent="Tnk6UtJkE0CCUPSip0-P-19" vertex="1" connectable="0">
          <mxGeometry x="-0.2056" y="-1" relative="1" as="geometry">
            <mxPoint x="8" y="-1" as="offset" />
          </mxGeometry>
        </mxCell>
        <mxCell id="Tnk6UtJkE0CCUPSip0-P-17" value="&lt;font&gt;High Dynamic Range Signal&lt;/font&gt;" style="rounded=0;whiteSpace=wrap;html=1;" parent="1" vertex="1">
          <mxGeometry x="70" y="1130" width="110" height="60" as="geometry" />
        </mxCell>
        <mxCell id="Tnk6UtJkE0CCUPSip0-P-21" style="edgeStyle=orthogonalEdgeStyle;rounded=0;orthogonalLoop=1;jettySize=auto;html=1;entryX=0;entryY=0.5;entryDx=0;entryDy=0;" parent="1" source="Tnk6UtJkE0CCUPSip0-P-18" target="Tnk6UtJkE0CCUPSip0-P-22" edge="1">
          <mxGeometry relative="1" as="geometry">
            <mxPoint x="510" y="1160" as="targetPoint" />
          </mxGeometry>
        </mxCell>
        <mxCell id="Tnk6UtJkE0CCUPSip0-P-23" value="Reconstruction" style="edgeLabel;html=1;align=center;verticalAlign=middle;resizable=0;points=[];" parent="Tnk6UtJkE0CCUPSip0-P-21" vertex="1" connectable="0">
          <mxGeometry x="0.0369" y="-1" relative="1" as="geometry">
            <mxPoint as="offset" />
          </mxGeometry>
        </mxCell>
        <mxCell id="Tnk6UtJkE0CCUPSip0-P-18" value="&lt;font&gt;Modulo Folded Signal between [-&lt;span style=&quot;color: rgb(16, 20, 24); font-family: sans-serif; text-align: start; background-color: rgb(255, 255, 255);&quot;&gt;&lt;font style=&quot;&quot;&gt;λ,&lt;/font&gt;&lt;/span&gt;&lt;span style=&quot;color: rgb(16, 20, 24); font-family: sans-serif; text-align: start; background-color: rgb(255, 255, 255);&quot;&gt;λ]&lt;/span&gt;&lt;/font&gt;" style="rounded=0;whiteSpace=wrap;html=1;" parent="1" vertex="1">
          <mxGeometry x="300" y="1130" width="120" height="60" as="geometry" />
        </mxCell>
        <mxCell id="Tnk6UtJkE0CCUPSip0-P-22" value="&lt;font&gt;Reconstructed Original Signal&amp;nbsp;&lt;/font&gt;" style="rounded=0;whiteSpace=wrap;html=1;" parent="1" vertex="1">
          <mxGeometry x="530" y="1130" width="120" height="60" as="geometry" />
        </mxCell>
        <mxCell id="Tnk6UtJkE0CCUPSip0-P-24" value="USF Workflow" style="text;html=1;align=center;verticalAlign=middle;whiteSpace=wrap;rounded=0;" parent="1" vertex="1">
          <mxGeometry x="270" y="1090" width="180" height="30" as="geometry" />
        </mxCell>
        <mxCell id="Tnk6UtJkE0CCUPSip0-P-77" style="edgeStyle=orthogonalEdgeStyle;rounded=0;orthogonalLoop=1;jettySize=auto;html=1;entryX=0.5;entryY=1;entryDx=0;entryDy=0;" parent="1" source="Tnk6UtJkE0CCUPSip0-P-28" target="Tnk6UtJkE0CCUPSip0-P-75" edge="1">
          <mxGeometry relative="1" as="geometry" />
        </mxCell>
        <mxCell id="Tnk6UtJkE0CCUPSip0-P-28" value="Modulo Residual" style="rounded=0;whiteSpace=wrap;html=1;" parent="1" vertex="1">
          <mxGeometry x="330" y="1369.95" width="90" height="60" as="geometry" />
        </mxCell>
        <mxCell id="Tnk6UtJkE0CCUPSip0-P-31" style="edgeStyle=orthogonalEdgeStyle;rounded=0;orthogonalLoop=1;jettySize=auto;html=1;" parent="1" source="Tnk6UtJkE0CCUPSip0-P-32" target="Tnk6UtJkE0CCUPSip0-P-36" edge="1">
          <mxGeometry relative="1" as="geometry">
            <mxPoint x="720" y="1399.95" as="targetPoint" />
          </mxGeometry>
        </mxCell>
        <mxCell id="Tnk6UtJkE0CCUPSip0-P-32" value="&lt;font style=&quot;font-size: 21px;&quot;&gt;+&lt;/font&gt;" style="rounded=0;whiteSpace=wrap;html=1;" parent="1" vertex="1">
          <mxGeometry x="640" y="1385.03" width="30" height="30" as="geometry" />
        </mxCell>
        <mxCell id="Tnk6UtJkE0CCUPSip0-P-56" style="edgeStyle=orthogonalEdgeStyle;rounded=0;orthogonalLoop=1;jettySize=auto;html=1;entryX=0.5;entryY=1;entryDx=0;entryDy=0;" parent="1" target="Tnk6UtJkE0CCUPSip0-P-38" edge="1">
          <mxGeometry relative="1" as="geometry">
            <mxPoint x="181.4999999999999" y="1400" as="sourcePoint" />
          </mxGeometry>
        </mxCell>
        <mxCell id="Tnk6UtJkE0CCUPSip0-P-82" style="edgeStyle=orthogonalEdgeStyle;rounded=0;orthogonalLoop=1;jettySize=auto;html=1;entryX=0.5;entryY=0;entryDx=0;entryDy=0;" parent="1" source="Tnk6UtJkE0CCUPSip0-P-35" target="Tnk6UtJkE0CCUPSip0-P-32" edge="1">
          <mxGeometry relative="1" as="geometry">
            <Array as="points">
              <mxPoint x="145" y="1260" />
              <mxPoint x="655" y="1260" />
            </Array>
          </mxGeometry>
        </mxCell>
        <mxCell id="Tnk6UtJkE0CCUPSip0-P-35" value="Modulo Folded Input" style="rounded=0;whiteSpace=wrap;html=1;" parent="1" vertex="1">
          <mxGeometry x="110" y="1369.95" width="70" height="60" as="geometry" />
        </mxCell>
        <mxCell id="Tnk6UtJkE0CCUPSip0-P-36" value="Reconstructed Result" style="rounded=0;whiteSpace=wrap;html=1;" parent="1" vertex="1">
          <mxGeometry x="700" y="1369.95" width="90" height="60" as="geometry" />
        </mxCell>
        <mxCell id="Tnk6UtJkE0CCUPSip0-P-57" style="edgeStyle=orthogonalEdgeStyle;rounded=0;orthogonalLoop=1;jettySize=auto;html=1;" parent="1" source="Tnk6UtJkE0CCUPSip0-P-38" target="Tnk6UtJkE0CCUPSip0-P-28" edge="1">
          <mxGeometry relative="1" as="geometry" />
        </mxCell>
        <mxCell id="Tnk6UtJkE0CCUPSip0-P-38" value="" style="shape=trapezoid;perimeter=trapezoidPerimeter;whiteSpace=wrap;html=1;fixedSize=1;rotation=90;" parent="1" vertex="1">
          <mxGeometry x="165" y="1359.94" width="185" height="80.02" as="geometry" />
        </mxCell>
        <mxCell id="Tnk6UtJkE0CCUPSip0-P-41" value="Difference Stage 3" style="rounded=0;whiteSpace=wrap;html=1;" parent="1" vertex="1">
          <mxGeometry x="222.51" y="1342.47" width="70" height="30.05" as="geometry" />
        </mxCell>
        <mxCell id="Tnk6UtJkE0CCUPSip0-P-42" value="Difference Stage 2" style="rounded=0;whiteSpace=wrap;html=1;" parent="1" vertex="1">
          <mxGeometry x="222.5" y="1382.47" width="70" height="30.05" as="geometry" />
        </mxCell>
        <mxCell id="Tnk6UtJkE0CCUPSip0-P-43" value="Difference Stage 1" style="rounded=0;whiteSpace=wrap;html=1;" parent="1" vertex="1">
          <mxGeometry x="222.51" y="1427.3700000000001" width="70" height="30.05" as="geometry" />
        </mxCell>
        <mxCell id="Tnk6UtJkE0CCUPSip0-P-51" value="" style="endArrow=none;html=1;rounded=0;" parent="1" edge="1">
          <mxGeometry width="50" height="50" relative="1" as="geometry">
            <mxPoint x="120" y="1540" as="sourcePoint" />
            <mxPoint x="550" y="1540" as="targetPoint" />
          </mxGeometry>
        </mxCell>
        <mxCell id="Tnk6UtJkE0CCUPSip0-P-52" value="Order N" style="edgeLabel;html=1;align=center;verticalAlign=middle;resizable=0;points=[];" parent="Tnk6UtJkE0CCUPSip0-P-51" vertex="1" connectable="0">
          <mxGeometry x="-0.0771" y="1" relative="1" as="geometry">
            <mxPoint as="offset" />
          </mxGeometry>
        </mxCell>
        <mxCell id="Tnk6UtJkE0CCUPSip0-P-54" style="edgeStyle=orthogonalEdgeStyle;rounded=0;orthogonalLoop=1;jettySize=auto;html=1;exitX=0.5;exitY=1;exitDx=0;exitDy=0;" parent="1" source="Tnk6UtJkE0CCUPSip0-P-41" target="Tnk6UtJkE0CCUPSip0-P-41" edge="1">
          <mxGeometry relative="1" as="geometry" />
        </mxCell>
        <mxCell id="Tnk6UtJkE0CCUPSip0-P-59" value="" style="endArrow=classic;html=1;rounded=0;entryX=1;entryY=0.5;entryDx=0;entryDy=0;" parent="1" target="Tnk6UtJkE0CCUPSip0-P-38" edge="1">
          <mxGeometry width="50" height="50" relative="1" as="geometry">
            <mxPoint x="258" y="1540" as="sourcePoint" />
            <mxPoint x="236" y="1482" as="targetPoint" />
          </mxGeometry>
        </mxCell>
        <mxCell id="Tnk6UtJkE0CCUPSip0-P-62" style="edgeStyle=orthogonalEdgeStyle;rounded=0;orthogonalLoop=1;jettySize=auto;html=1;" parent="1" source="Tnk6UtJkE0CCUPSip0-P-60" target="Tnk6UtJkE0CCUPSip0-P-61" edge="1">
          <mxGeometry relative="1" as="geometry" />
        </mxCell>
        <mxCell id="Tnk6UtJkE0CCUPSip0-P-60" value="Anti-Difference Stage 3" style="rounded=0;whiteSpace=wrap;html=1;" parent="1" vertex="1">
          <mxGeometry x="470" y="1320" width="60" height="50" as="geometry" />
        </mxCell>
        <mxCell id="Tnk6UtJkE0CCUPSip0-P-61" value="Filter" style="rounded=0;whiteSpace=wrap;html=1;" parent="1" vertex="1">
          <mxGeometry x="550" y="1320" width="50" height="50" as="geometry" />
        </mxCell>
        <mxCell id="Tnk6UtJkE0CCUPSip0-P-63" style="edgeStyle=orthogonalEdgeStyle;rounded=0;orthogonalLoop=1;jettySize=auto;html=1;" parent="1" source="Tnk6UtJkE0CCUPSip0-P-64" target="Tnk6UtJkE0CCUPSip0-P-65" edge="1">
          <mxGeometry relative="1" as="geometry" />
        </mxCell>
        <mxCell id="Tnk6UtJkE0CCUPSip0-P-64" value="Anti-Difference Stage 2" style="rounded=0;whiteSpace=wrap;html=1;" parent="1" vertex="1">
          <mxGeometry x="470" y="1379.96" width="60" height="50" as="geometry" />
        </mxCell>
        <mxCell id="Tnk6UtJkE0CCUPSip0-P-65" value="Filter" style="rounded=0;whiteSpace=wrap;html=1;" parent="1" vertex="1">
          <mxGeometry x="550" y="1379.96" width="50" height="50" as="geometry" />
        </mxCell>
        <mxCell id="Tnk6UtJkE0CCUPSip0-P-66" style="edgeStyle=orthogonalEdgeStyle;rounded=0;orthogonalLoop=1;jettySize=auto;html=1;" parent="1" source="Tnk6UtJkE0CCUPSip0-P-67" target="Tnk6UtJkE0CCUPSip0-P-68" edge="1">
          <mxGeometry relative="1" as="geometry" />
        </mxCell>
        <mxCell id="Tnk6UtJkE0CCUPSip0-P-67" value="Anti-Difference Stage 1" style="rounded=0;whiteSpace=wrap;html=1;" parent="1" vertex="1">
          <mxGeometry x="470" y="1440" width="60" height="50" as="geometry" />
        </mxCell>
        <mxCell id="Tnk6UtJkE0CCUPSip0-P-68" value="Filter" style="rounded=0;whiteSpace=wrap;html=1;" parent="1" vertex="1">
          <mxGeometry x="550" y="1440" width="50" height="50" as="geometry" />
        </mxCell>
        <mxCell id="Tnk6UtJkE0CCUPSip0-P-69" value="" style="endArrow=classic;html=1;rounded=0;exitX=0.5;exitY=0;exitDx=0;exitDy=0;entryX=0.5;entryY=1;entryDx=0;entryDy=0;" parent="1" source="Tnk6UtJkE0CCUPSip0-P-43" target="Tnk6UtJkE0CCUPSip0-P-42" edge="1">
          <mxGeometry width="50" height="50" relative="1" as="geometry">
            <mxPoint x="391.5" y="1480" as="sourcePoint" />
            <mxPoint x="441.5" y="1430" as="targetPoint" />
          </mxGeometry>
        </mxCell>
        <mxCell id="Tnk6UtJkE0CCUPSip0-P-70" value="" style="endArrow=classic;html=1;rounded=0;exitX=0.5;exitY=0;exitDx=0;exitDy=0;entryX=0.5;entryY=1;entryDx=0;entryDy=0;" parent="1" edge="1">
          <mxGeometry width="50" height="50" relative="1" as="geometry">
            <mxPoint x="257.15999999999997" y="1384.95" as="sourcePoint" />
            <mxPoint x="257.15999999999997" y="1370.95" as="targetPoint" />
          </mxGeometry>
        </mxCell>
        <mxCell id="Tnk6UtJkE0CCUPSip0-P-73" value="" style="endArrow=classic;html=1;rounded=0;exitX=0.5;exitY=0;exitDx=0;exitDy=0;entryX=0.5;entryY=1;entryDx=0;entryDy=0;" parent="1" source="Tnk6UtJkE0CCUPSip0-P-68" target="Tnk6UtJkE0CCUPSip0-P-64" edge="1">
          <mxGeometry width="50" height="50" relative="1" as="geometry">
            <mxPoint x="370" y="1400" as="sourcePoint" />
            <mxPoint x="420" y="1350" as="targetPoint" />
          </mxGeometry>
        </mxCell>
        <mxCell id="Tnk6UtJkE0CCUPSip0-P-74" value="" style="endArrow=classic;html=1;rounded=0;exitX=0.5;exitY=0;exitDx=0;exitDy=0;entryX=0.5;entryY=1;entryDx=0;entryDy=0;" parent="1" edge="1">
          <mxGeometry width="50" height="50" relative="1" as="geometry">
            <mxPoint x="575" y="1379.95" as="sourcePoint" />
            <mxPoint x="500" y="1369.95" as="targetPoint" />
          </mxGeometry>
        </mxCell>
        <mxCell id="Tnk6UtJkE0CCUPSip0-P-79" value="" style="endArrow=classic;html=1;rounded=0;entryX=0.952;entryY=0.416;entryDx=0;entryDy=0;entryPerimeter=0;" parent="1" target="Tnk6UtJkE0CCUPSip0-P-75" edge="1">
          <mxGeometry width="50" height="50" relative="1" as="geometry">
            <mxPoint x="551" y="1540" as="sourcePoint" />
            <mxPoint x="590" y="1520" as="targetPoint" />
          </mxGeometry>
        </mxCell>
        <mxCell id="pupJrClnPEWbawqv8QPg-3" style="edgeStyle=orthogonalEdgeStyle;rounded=0;orthogonalLoop=1;jettySize=auto;html=1;entryX=0;entryY=0.5;entryDx=0;entryDy=0;" edge="1" parent="1" source="pupJrClnPEWbawqv8QPg-1">
          <mxGeometry relative="1" as="geometry">
            <mxPoint x="260" y="1820" as="targetPoint" />
          </mxGeometry>
        </mxCell>
        <mxCell id="pupJrClnPEWbawqv8QPg-1" value="CPU&amp;nbsp; toggle ADC start registers high" style="rounded=0;whiteSpace=wrap;html=1;" vertex="1" parent="1">
          <mxGeometry x="80" y="1790" width="120" height="60" as="geometry" />
        </mxCell>
        <mxCell id="pupJrClnPEWbawqv8QPg-5" style="edgeStyle=orthogonalEdgeStyle;rounded=0;orthogonalLoop=1;jettySize=auto;html=1;" edge="1" parent="1" source="pupJrClnPEWbawqv8QPg-4">
          <mxGeometry relative="1" as="geometry">
            <mxPoint x="400" y="1820" as="targetPoint" />
          </mxGeometry>
        </mxCell>
        <mxCell id="pupJrClnPEWbawqv8QPg-10" style="edgeStyle=orthogonalEdgeStyle;rounded=0;orthogonalLoop=1;jettySize=auto;html=1;entryX=0;entryY=0.5;entryDx=0;entryDy=0;" edge="1" parent="1" source="pupJrClnPEWbawqv8QPg-4" target="pupJrClnPEWbawqv8QPg-8">
          <mxGeometry relative="1" as="geometry">
            <Array as="points">
              <mxPoint x="310" y="1910" />
            </Array>
          </mxGeometry>
        </mxCell>
        <mxCell id="pupJrClnPEWbawqv8QPg-4" value="Digital Error Trigger High" style="rhombus;whiteSpace=wrap;html=1;" vertex="1" parent="1">
          <mxGeometry x="258" y="1775" width="102" height="90" as="geometry" />
        </mxCell>
        <mxCell id="pupJrClnPEWbawqv8QPg-11" style="edgeStyle=orthogonalEdgeStyle;rounded=0;orthogonalLoop=1;jettySize=auto;html=1;" edge="1" parent="1" source="pupJrClnPEWbawqv8QPg-6" target="pupJrClnPEWbawqv8QPg-9">
          <mxGeometry relative="1" as="geometry" />
        </mxCell>
        <mxCell id="pupJrClnPEWbawqv8QPg-6" value="Sample from ADC" style="rounded=0;whiteSpace=wrap;html=1;" vertex="1" parent="1">
          <mxGeometry x="400" y="1790" width="120" height="60" as="geometry" />
        </mxCell>
        <mxCell id="pupJrClnPEWbawqv8QPg-12" style="edgeStyle=orthogonalEdgeStyle;rounded=0;orthogonalLoop=1;jettySize=auto;html=1;entryX=0;entryY=0.5;entryDx=0;entryDy=0;" edge="1" parent="1" source="pupJrClnPEWbawqv8QPg-8" target="pupJrClnPEWbawqv8QPg-9">
          <mxGeometry relative="1" as="geometry" />
        </mxCell>
        <mxCell id="pupJrClnPEWbawqv8QPg-8" value="Take preset low value" style="rounded=0;whiteSpace=wrap;html=1;" vertex="1" parent="1">
          <mxGeometry x="400" y="1880" width="120" height="60" as="geometry" />
        </mxCell>
        <mxCell id="pupJrClnPEWbawqv8QPg-9" value="Stored in Register and Read by CPU" style="rounded=0;whiteSpace=wrap;html=1;" vertex="1" parent="1">
          <mxGeometry x="605" y="1790" width="120" height="60" as="geometry" />
        </mxCell>
      </root>
    </mxGraphModel>
  </diagram>
</mxfile>
